<?xml version="1.0" encoding="UTF-8" standalone="no"?>
<!-- Created with Inkscape (http://www.inkscape.org/) -->

<svg
   version="1.1"
   id="svg1"
   width="612"
   height="612"
   viewBox="0 0 612 612"
   sodipodi:docname="GalacticEmpireLogo.svg"
   inkscape:version="1.3 (0e150ed6c4, 2023-07-21)"
   inkscape:export-filename="GalacticEmpireLogo.png"
   inkscape:export-xdpi="80.313728"
   inkscape:export-ydpi="80.313728"
   xmlns:inkscape="http://www.inkscape.org/namespaces/inkscape"
   xmlns:sodipodi="http://sodipodi.sourceforge.net/DTD/sodipodi-0.dtd"
   xmlns="http://www.w3.org/2000/svg"
   xmlns:svg="http://www.w3.org/2000/svg">
  <defs
     id="defs1" />
  <sodipodi:namedview
     id="namedview1"
     pagecolor="#000000"
     bordercolor="#000000"
     borderopacity="0.25"
     inkscape:showpageshadow="2"
     inkscape:pageopacity="0.0"
     inkscape:pagecheckerboard="0"
     inkscape:deskcolor="#d1d1d1"
     inkscape:zoom="1.00965"
     inkscape:cx="288.21869"
     inkscape:cy="245.13446"
     inkscape:window-width="1920"
     inkscape:window-height="1057"
     inkscape:window-x="-8"
     inkscape:window-y="-8"
     inkscape:window-maximized="1"
     inkscape:current-layer="g1" />
  <g
     inkscape:groupmode="layer"
     inkscape:label="Image"
     id="g1">
    <path
       style="fill:#ffffff"
       d="M 280.97575,604.38611 C 193.67883,595.89571 118.58056,554.13321 66.384764,485.05101 35.708752,444.45071 16.352462,396.77835 8.869672,343.39785 c -2.44635,-17.4517 -2.44635,-57.5483 0,-75 4.85475,-34.63271 13.57481,-63.61317 28.13363,-93.50001 C 77.292754,92.190281 154.36234,31.938416 244.03903,13.040346 c 22.97762,-4.8421999 35.142,-6.0250599 61.96098,-6.0250599 26.81898,0 38.98336,1.18286 61.96098,6.0250599 60.93011,12.84014 118.88329,46.23382 159.75927,92.056184 42.16285,47.26498 66.54598,100.0669 75.41007,163.30132 2.44635,17.4517 2.44635,57.5483 0,75 -4.85307,34.6207 -13.56778,63.5885 -28.12864,93.49996 -40.22616,82.6341 -117.41792,142.9795 -207.0407,161.8561 -6.57854,1.3856 -17.36098,3.251 -23.96098,4.1453 -14.02583,1.9006 -50.03597,2.7501 -63.02426,1.4869 z m 11.94615,-26.2383 c 0.28189,-1.7875 0.65336,-6.4925 0.82549,-10.4555 l 0.31297,-7.2055 -5.53018,-0.5875 c -15.77119,-1.6755 -23.50816,-2.7627 -33.28017,-4.6766 -8.3623,-1.6377 -10.74619,-2.4629 -10.73286,-3.7151 0.009,-0.8854 0.90171,-4.9848 1.98286,-9.1098 1.08115,-4.125 1.97344,-7.9957 1.98286,-8.6016 0.009,-0.6059 -3.02036,-1.9165 -6.73286,-2.9124 -33.11438,-8.8837 -74.89843,-33.0003 -97.71241,-56.3969 -2.72932,-2.799 -5.41803,-5.0891 -5.9749,-5.0891 -0.55687,0 -4.04991,3.0141 -7.7623,6.6981 l -6.7498,6.698 -2.62907,-2.448 c -4.22873,-3.9376 -14.6119,-16.6931 -21.936296,-26.9481 -3.73181,-5.225 -6.89866,-9.6435 -7.03745,-9.819 -0.54994,-0.6951 -17.44778,10.8487 -17.44778,11.9195 0,3.6239 21.72259,30.6764 36.520386,45.4811 43.24251,43.2627 99.92389,71.1953 158.97962,78.3451 13.6508,1.6527 14.71362,1.762 18.70469,1.9235 3.44809,0.1394 3.74018,-0.075 4.2172,-3.1002 z m 53.07811,0.655 c 75.16009,-10.7599 141.88643,-52.0262 186.81192,-115.532 2.57844,-3.6448 4.68808,-7.1294 4.68808,-7.7435 0,-0.614 -3.86639,-3.6895 -8.59199,-6.8343 -7.17695,-4.7762 -8.73457,-5.4631 -9.45779,-4.1707 -2.29184,4.0952 -19.38859,26.1186 -24.745,31.8755 l -6.04783,6.5 -6.85379,-6.75 c -3.76959,-3.7125 -7.30942,-6.75 -7.86629,-6.75 -0.55687,0 -3.24558,2.2901 -5.9749,5.0891 -22.86769,23.4517 -64.52007,47.4923 -97.71241,56.3969 -3.7125,0.9959 -6.74229,2.3065 -6.73286,2.9124 0.009,0.6059 0.90171,4.4766 1.98286,8.6016 1.08115,4.125 1.97344,8.2244 1.98286,9.1098 0.0248,2.3324 -16.28136,5.4394 -44.09542,8.4019 l -5.61256,0.5979 0.40809,7.1952 c 0.22445,3.9573 0.6413,8.702 0.92634,10.5436 l 0.51825,3.3485 8.18622,-0.6802 c 4.50242,-0.3741 12.68622,-1.3244 18.18622,-2.1117 z m -17.75,-90.0365 c 1.49015,-0.3985 2.25,-1.3632 2.25,-2.8566 0,-1.2401 -2.26831,-21.0639 -5.04069,-44.0528 -2.77238,-22.98886 -4.90988,-42.44246 -4.75,-43.23026 0.17909,-0.8824 3.57302,-2.2808 8.84053,-3.6426 16.01782,-4.1411 28.99151,-11.5729 41.33292,-23.6771 l 7.88277,-7.7312 35.92361,26.9641 c 19.75799,14.8302 36.46074,27.1649 37.11724,27.4104 2.58781,0.9677 24.69362,-36.6403 24.69362,-42.0106 0,-0.6691 -18.7875,-9.2328 -41.75,-19.0305 -22.9625,-9.7977 -41.81107,-17.8584 -41.88571,-17.9127 -0.0746,-0.054 0.89945,-4.1753 2.16463,-9.1578 4.44175,-17.4925 4.15364,-34.7503 -0.84608,-50.6799 l -2.27892,-7.2609 42.41433,-18.1996 c 23.32788,-10.0098 42.60929,-18.39462 42.84758,-18.63291 1.58642,-1.58642 -22.67394,-42.69127 -25.16583,-42.63903 -0.55,0.0115 -17.42237,12.35436 -37.49415,27.42851 l -36.49414,27.40753 -7.00586,-6.7544 C 356.9798,226.98524 342.74099,219.51133 322.46182,215.02729 l -2.53819,-0.56124 5.25272,-43.28411 c 2.889,-23.80626 5.26869,-44.6825 5.28819,-46.39165 0.0351,-3.07512 -0.0287,-3.11424 -6.11122,-3.75 -7.85347,-0.82085 -27.36686,-0.81584 -36.10331,0.009 -6.37574,0.60215 -6.75,0.77699 -6.75,3.15334 0,1.38372 2.27506,21.39126 5.05568,44.46122 2.78063,23.06995 4.91813,42.84489 4.75,43.94431 -0.24469,1.60013 -2.00156,2.44403 -8.80568,4.22975 -16.01828,4.20396 -28.98576,11.59899 -41.50585,23.66978 l -7.00586,6.7544 -36.49414,-27.40753 c -20.07178,-15.07415 -37.0077,-27.41867 -37.63538,-27.43226 -3.01047,-0.0652 -25.31679,39.03633 -24.09117,42.23026 0.2819,0.73461 19.4211,9.41513 42.53156,19.29003 l 42.01902,17.9544 -1.32131,3.1623 c -3.31231,7.9275 -4.97315,18.8564 -4.83839,31.8383 0.12635,12.1724 0.97448,17.4953 4.78012,30 0.54946,1.8054 -3.48506,3.7455 -41.47634,19.9448 -23.14676,9.8696 -42.26204,18.2312 -42.47839,18.5813 -1.16172,1.8797 20.9265,40.2554 24.40892,42.4076 0.46329,0.2864 17.30351,-11.8295 37.42272,-26.9242 l 36.58039,-27.4448 6.16679,6.4221 c 11.40747,11.8797 27.6857,21.3953 42.93731,25.0994 4.125,1.0018 7.89605,2.1483 8.38012,2.5478 0.49624,0.4095 -1.44322,20.1533 -4.44656,45.26622 -2.92967,24.497 -4.97682,44.891 -4.54921,45.3199 1.9682,1.9743 39.44863,2.4985 46.36565,0.6484 z M 79.403004,422.79601 c 0.22165,-0.204 -1.90633,-5.29416 -4.72885,-11.31156 -5.24508,-11.1822 -13.82066,-34.7734 -12.95505,-35.639 0.26417,-0.2642 4.48544,-1.6394 9.3806,-3.056 4.89516,-1.4165 9.04083,-2.7122 9.21258,-2.8792 0.17176,-0.167 -0.58724,-4.0912 -1.68667,-8.7204 -8.70037,-36.6332 -8.72422,-75.7711 -0.067,-109.9586 1.06777,-4.2167 1.9414,-8.0904 1.9414,-8.6083 0,-0.5179 -4.1093,-2.1147 -9.13178,-3.5485 -5.02247,-1.43375 -9.36173,-2.83679 -9.6428,-3.11785 -0.8609,-0.8609 7.72236,-24.42133 13.05041,-35.82243 2.76659,-5.92002 4.84882,-10.93056 4.62717,-11.13453 -0.22165,-0.20397 -4.55639,-2.44776 -9.63275,-4.9862 l -9.22975,-4.61533 -1.91123,3.74986 c -7.76313,15.23129 -17.563782,42.95244 -21.624662,61.16538 -9.00275,40.377 -9.00275,82.792 0,123.169 4.06088,18.2129 13.861532,45.9341 21.624662,61.16526 l 1.91123,3.7499 9.22975,-4.6153 c 5.07636,-2.5385 9.4111,-4.7822 9.63275,-4.9862 z m 478.084266,-3.1738 c 24.53592,-54.80886 30.67338,-116.26316 17.50813,-175.30886 -4.06089,-18.21294 -13.86154,-45.93409 -21.62466,-61.16538 l -1.91124,-3.74986 -9.22974,4.61533 c -5.07636,2.53844 -9.4111,4.78223 -9.63275,4.9862 -0.22165,0.20397 1.86057,5.21451 4.62716,11.13453 5.32805,11.4011 13.91131,34.96153 13.05041,35.82243 -0.28106,0.28106 -4.62032,1.6841 -9.6428,3.11785 -5.02247,1.4338 -9.13177,3.0306 -9.13177,3.5485 0,0.5179 0.87363,4.3916 1.9414,8.6083 8.60205,33.9697 8.60205,75.3635 0,109.3332 -1.06777,4.2166 -1.9414,8.0904 -1.9414,8.6083 0,0.5179 4.1093,2.1147 9.13177,3.5485 5.02248,1.4337 9.35625,2.8313 9.63061,3.1056 0.88088,0.8809 -7.63726,24.3598 -12.93654,35.6576 -2.82251,6.0174 -4.95049,11.10736 -4.72884,11.31106 1.74412,1.6029 18.56305,9.2721 19.13886,8.7271 0.40472,-0.3831 2.99285,-5.7383 5.7514,-11.9004 z M 96.959044,161.16637 c 6.047236,-8.806 19.200156,-25.19187 23.457566,-29.22335 l 3.12041,-2.95482 6.75659,6.70482 c 3.71613,3.68765 7.21222,6.70482 7.76909,6.70482 0.55687,0 3.24558,-2.29012 5.9749,-5.08914 22.81398,-23.39659 64.59803,-47.513169 97.71241,-56.396854 3.7125,-0.99597 6.74229,-2.30656 6.73286,-2.91243 -0.009,-0.60586 -0.90171,-4.47657 -1.98286,-8.60157 -1.08115,-4.125 -1.97344,-8.2244 -1.98286,-9.10977 -0.0248,-2.32942 16.36586,-5.45453 44.01303,-8.3917 l 5.53018,-0.58752 -0.31297,-7.20551 c -0.17213,-3.96303 -0.5436,-8.668 -0.82549,-10.4555 -0.59481,-3.77184 -0.58172,-3.76994 -15.42189,-2.22873 -79.82868,8.29052 -151.11134,50.38384 -198.311926,117.105714 -2.57845,3.64484 -4.68808,7.14226 -4.68808,7.77204 0,0.94799 15.39304,11.84263 17,12.03198 0.275,0.0324 2.73157,-3.19071 5.45904,-7.16248 z m 432.050106,1.75394 c 4.66997,-3.01265 8.49086,-5.993 8.49086,-6.62301 0,-3.62389 -21.7226,-30.67636 -36.52038,-45.48106 C 454.26147,64.076276 394.32015,36.406746 327.81379,30.881116 l -8.18622,-0.68014 -0.51825,3.34843 c -0.28504,1.84164 -0.70189,6.58628 -0.92634,10.54365 l -0.40809,7.19522 5.61256,0.5978 c 15.94373,1.69821 23.58065,2.77106 33.36256,4.68684 8.3623,1.63776 10.74619,2.46294 10.73286,3.71516 -0.009,0.88537 -0.90171,4.98477 -1.98286,9.10977 -1.08115,4.125 -1.97344,7.99571 -1.98286,8.60157 -0.009,0.60587 3.02036,1.91646 6.73286,2.91243 33.19234,8.904595 74.84472,32.945184 97.71241,56.396854 2.72932,2.79902 5.41803,5.08914 5.9749,5.08914 0.55687,0 4.05296,-3.01717 7.76909,-6.70482 l 6.75659,-6.70482 3.12041,2.95482 c 4.25741,4.03148 17.41033,20.41735 23.45755,29.22335 2.72748,3.97177 5.07566,7.22366 5.21819,7.22643 0.14252,0.003 4.08002,-2.45985 8.75,-5.47249 z"
       id="path2" />
  </g>
</svg>
